<?xml version="1.0" encoding="UTF-8"?>
<svg id="Ebene_1" xmlns="http://www.w3.org/2000/svg" version="1.1" viewBox="0 0 372.5 177.2">
  <defs>
    <style>
      .st0 {
        fill: #f01414;
      }
      .st1 {
        fill: #fff;
      }
      .st2 {
        fill: none;
        stroke: #f01414;
        stroke-miterlimit: 10;
        stroke-width: 3.7px;
      }
    </style>
  </defs>
  <rect class="st0" x="0" y="0" width="372.5" height="177.2" rx="21.5" ry="21.5"/>
  <path class="st1" d="M27.5,26.1h22.1c21.9,0,37.9,11.6,37.9,39.1v1.6c0,15.9-6.3,26.1-14.4,32.2l16.5,49.8h-22.8l-13.8-42.8h-4v42.8h-21.4V26.1ZM49.9,86.8c9.3,0,16.1-5.4,16.1-19.8v-1.4c0-15.4-7.4-19.5-16.6-19.5h-.5v40.7h1.1Z"/>
  <path class="st1" d="M95.3,26.1h47v20.3h-25.6v30.5h22.6v20.3h-22.6v31.2h26.1v20.3h-47.5V26.1Z"/>
  <path class="st1" d="M150.7,26.1h20c27.3,0,42.9,19.8,42.9,59.2v4.2c0,39.4-15.6,59.2-42.9,59.2h-20V26.1ZM172.9,129.2c10.2,0,18.9-8.9,18.9-39.6v-4.2c0-30.7-8.8-39.6-18.9-39.6h-.9v83.4h.9Z"/>
  <g transform="translate(-47, 0)">
    <path class="st1" d="M267.9,26.1h21.4v122.7h-21.4V26.1Z"/>
    <path class="st1" d="M308.1,46.5h-19.1v-20.3h80.5v20.3h-40.1v102.4h-21.4V46.5Z"/>
    <path class="st1" d="M348,144.1v-22.3c7.5,4.4,13.5,6.8,19.3,6.8s11.4-3,11.4-10.5v-.4c0-5.6-1.8-9.8-11.9-21.4-14.5-16.5-20.5-24.4-20.5-39.3v-.4c0-19.6,12.8-32.1,29.8-32.1s13.7,1.2,18.9,3.9v22.3c-6.7-3.9-10.7-5.6-16.3-5.6s-11,3.9-11,10.5v.4c0,5.8,1.8,7.9,11.9,19.6,16.8,19.5,20.5,27,20.5,41v.4c0,19.3-13.5,32.1-30.3,32.1s-15.6-2.1-21.7-5.1Z"/>
    <line class="st2" x1="336.6" y1="54.9" x2="373.1" y2="18.4"/>
    <line class="st2" x1="298.1" y1="54.9" x2="261.6" y2="18.4"/>
  </g>
</svg>